<svg width="20" height="20" viewBox="0 0 20 20" fill="none" xmlns="http://www.w3.org/2000/svg">
<path d="M15.8333 7.50001C15.8333 6.73396 15.6824 5.97542 15.3893 5.26769C15.0961 4.55995 14.6664 3.91689 14.1248 3.37522C13.5831 2.83354 12.94 2.40386 12.2323 2.11071C11.5245 1.81756 10.766 1.66667 9.99996 1.66667C9.23392 1.66667 8.47537 1.81756 7.76764 2.11071C7.05991 2.40386 6.41685 2.83354 5.87517 3.37522C5.33349 3.91689 4.90381 4.55995 4.61066 5.26769C4.31751 5.97542 4.16663 6.73396 4.16663 7.50001C4.16663 8.65584 4.50829 9.73084 5.08746 10.6375H5.08079C7.04746 13.7167 9.99996 18.3333 9.99996 18.3333L14.9191 10.6375H14.9133C15.5136 9.70115 15.8329 8.61229 15.8333 7.50001ZM9.99996 10C9.33692 10 8.70103 9.73661 8.23219 9.26777C7.76335 8.79893 7.49996 8.16305 7.49996 7.50001C7.49996 6.83696 7.76335 6.20108 8.23219 5.73224C8.70103 5.2634 9.33692 5.00001 9.99996 5.00001C10.663 5.00001 11.2989 5.2634 11.7677 5.73224C12.2366 6.20108 12.5 6.83696 12.5 7.50001C12.5 8.16305 12.2366 8.79893 11.7677 9.26777C11.2989 9.73661 10.663 10 9.99996 10Z" fill="#44425C"/>
</svg>
