<svg width="20" height="20" viewBox="0 0 20 20" fill="none" xmlns="http://www.w3.org/2000/svg">
<path d="M5.08424 14.2669H3.45006V9.69353L3.46593 8.94212L3.49237 8.12043C3.22089 8.39793 3.03226 8.57992 2.92649 8.66642L2.038 9.39621L1.25 8.39072L3.74093 6.36352H5.08424V14.2669Z" fill="#44425C"/>
<path d="M12.6364 14.2669H7.23141V13.1046L9.17233 11.0991C9.74703 10.4972 10.1225 10.0809 10.2988 9.8503C10.4751 9.61605 10.602 9.39981 10.6796 9.2016C10.7572 9.00338 10.7959 8.79796 10.7959 8.58533C10.7959 8.26819 10.7096 8.03213 10.5368 7.87716C10.3676 7.72219 10.1401 7.64471 9.85456 7.64471C9.55488 7.64471 9.264 7.71499 8.98194 7.85554C8.69988 7.99609 8.40549 8.19611 8.09875 8.45559L7.21026 7.37982C7.59104 7.04826 7.90659 6.81401 8.15692 6.67706C8.40725 6.54011 8.68049 6.4356 8.97666 6.36352C9.27282 6.28784 9.60424 6.25 9.97091 6.25C10.4539 6.25 10.8806 6.3401 11.2508 6.52029C11.621 6.70049 11.9083 6.95276 12.1128 7.27711C12.3173 7.60146 12.4195 7.97267 12.4195 8.39072C12.4195 8.75471 12.3561 9.09708 12.2291 9.41783C12.1057 9.73497 11.9118 10.0611 11.6474 10.3963C11.3865 10.7315 10.9246 11.209 10.2618 11.8288L9.26753 12.7857V12.8614H12.6364V14.2669Z" fill="#44425C"/>
<path d="M18.5226 8.13124C18.5226 8.62497 18.3763 9.04483 18.0836 9.3908C17.791 9.73678 17.3803 9.97463 16.8514 10.1044V10.1368C17.4754 10.2161 17.9479 10.4107 18.2687 10.7206C18.5896 11.027 18.75 11.4414 18.75 11.964C18.75 12.7244 18.4803 13.3173 17.9408 13.7425C17.4014 14.1642 16.631 14.375 15.6297 14.375C14.7906 14.375 14.0467 14.2326 13.3979 13.9479V12.5262C13.6976 12.6812 14.0273 12.8073 14.3869 12.9046C14.7465 13.0019 15.1026 13.0506 15.4552 13.0506C15.9946 13.0506 16.393 12.9569 16.6504 12.7695C16.9078 12.5821 17.0365 12.2811 17.0365 11.8667C17.0365 11.4955 16.8884 11.2324 16.5922 11.0774C16.2961 10.9225 15.8236 10.845 15.1749 10.845H14.5879V9.56379H15.1855C15.7849 9.56379 16.222 9.4845 16.4971 9.32593C16.7756 9.16376 16.9149 8.88806 16.9149 8.49884C16.9149 7.90059 16.5482 7.60146 15.8148 7.60146C15.561 7.60146 15.3018 7.64471 15.0374 7.7312C14.7765 7.8177 14.4856 7.96726 14.1648 8.17989L13.4085 7.02844C14.1137 6.50948 14.9545 6.25 15.9312 6.25C16.7315 6.25 17.3626 6.41578 17.8245 6.74734C18.2899 7.0789 18.5226 7.5402 18.5226 8.13124Z" fill="#44425C"/>
</svg>
