<svg width="20" height="20" viewBox="0 0 20 20" fill="none" xmlns="http://www.w3.org/2000/svg">
<path d="M9.99995 6.66663C10.884 6.66663 11.7319 7.01782 12.357 7.64294C12.9821 8.26807 13.3333 9.11591 13.3333 9.99997C13.3333 10.884 12.9821 11.7319 12.357 12.357C11.7319 12.9821 10.884 13.3333 9.99995 13.3333C9.11589 13.3333 8.26805 12.9821 7.64293 12.357C7.01781 11.7319 6.66662 10.884 6.66662 9.99997C6.66662 9.11591 7.01781 8.26807 7.64293 7.64294C8.26805 7.01782 9.11589 6.66663 9.99995 6.66663ZM9.99995 8.3333C9.55792 8.3333 9.134 8.5089 8.82144 8.82146C8.50888 9.13402 8.33328 9.55794 8.33328 9.99997C8.33328 10.442 8.50888 10.8659 8.82144 11.1785C9.134 11.491 9.55792 11.6666 9.99995 11.6666C10.442 11.6666 10.8659 11.491 11.1785 11.1785C11.491 10.8659 11.6666 10.442 11.6666 9.99997C11.6666 9.55794 11.491 9.13402 11.1785 8.82146C10.8659 8.5089 10.442 8.3333 9.99995 8.3333ZM8.33328 18.3333C8.12495 18.3333 7.94995 18.1833 7.91662 17.9833L7.60828 15.775C7.08328 15.5666 6.63328 15.2833 6.19995 14.95L4.12495 15.7916C3.94162 15.8583 3.71662 15.7916 3.61662 15.6083L1.94995 12.725C1.89895 12.6391 1.88097 12.5376 1.89937 12.4394C1.91778 12.3413 1.97131 12.2532 2.04995 12.1916L3.80828 10.8083L3.74995 9.99997L3.80828 9.16663L2.04995 7.8083C1.97131 7.74675 1.91778 7.65865 1.89937 7.56049C1.88097 7.46233 1.89895 7.36083 1.94995 7.27497L3.61662 4.39163C3.71662 4.2083 3.94162 4.1333 4.12495 4.2083L6.19995 5.04163C6.63328 4.71663 7.08328 4.4333 7.60828 4.22497L7.91662 2.01663C7.94995 1.81663 8.12495 1.66663 8.33328 1.66663H11.6666C11.8749 1.66663 12.0499 1.81663 12.0833 2.01663L12.3916 4.22497C12.9166 4.4333 13.3666 4.71663 13.7999 5.04163L15.8749 4.2083C16.0583 4.1333 16.2833 4.2083 16.3833 4.39163L18.0499 7.27497C18.1583 7.4583 18.1083 7.6833 17.9499 7.8083L16.1916 9.16663L16.2499 9.99997L16.1916 10.8333L17.9499 12.1916C18.1083 12.3166 18.1583 12.5416 18.0499 12.725L16.3833 15.6083C16.2833 15.7916 16.0583 15.8666 15.8749 15.7916L13.7999 14.9583C13.3666 15.2833 12.9166 15.5666 12.3916 15.775L12.0833 17.9833C12.0499 18.1833 11.8749 18.3333 11.6666 18.3333H8.33328ZM9.37495 3.3333L9.06662 5.5083C8.06662 5.71663 7.18328 6.24997 6.54162 6.99163L4.53328 6.12497L3.90828 7.2083L5.66662 8.49997C5.33328 9.47219 5.33328 10.5277 5.66662 11.5L3.89995 12.8L4.52495 13.8833L6.54995 13.0166C7.19162 13.75 8.06662 14.2833 9.05828 14.4833L9.36662 16.6666H10.6333L10.9416 14.4916C11.9333 14.2833 12.8083 13.75 13.4499 13.0166L15.4749 13.8833L16.0999 12.8L14.3333 11.5083C14.6666 10.5333 14.6666 9.47497 14.3333 8.49997L16.0916 7.2083L15.4666 6.12497L13.4583 6.99163C12.8035 6.23357 11.9152 5.7147 10.9333 5.51663L10.6249 3.3333H9.37495Z" fill="#A6A4A4"/>
</svg>
