<svg width="20" height="20" viewBox="0 0 20 20" fill="none" xmlns="http://www.w3.org/2000/svg">
<path d="M5.83337 4.16667H17.5V5.83333H5.83337V4.16667ZM5.83337 10.8333V9.16667H17.5V10.8333H5.83337ZM3.33337 3.75C3.66489 3.75 3.98284 3.8817 4.21726 4.11612C4.45168 4.35054 4.58337 4.66848 4.58337 5C4.58337 5.33152 4.45168 5.64946 4.21726 5.88388C3.98284 6.1183 3.66489 6.25 3.33337 6.25C3.00185 6.25 2.68391 6.1183 2.44949 5.88388C2.21507 5.64946 2.08337 5.33152 2.08337 5C2.08337 4.66848 2.21507 4.35054 2.44949 4.11612C2.68391 3.8817 3.00185 3.75 3.33337 3.75ZM3.33337 8.75C3.66489 8.75 3.98284 8.8817 4.21726 9.11612C4.45168 9.35054 4.58337 9.66848 4.58337 10C4.58337 10.3315 4.45168 10.6495 4.21726 10.8839C3.98284 11.1183 3.66489 11.25 3.33337 11.25C3.00185 11.25 2.68391 11.1183 2.44949 10.8839C2.21507 10.6495 2.08337 10.3315 2.08337 10C2.08337 9.66848 2.21507 9.35054 2.44949 9.11612C2.68391 8.8817 3.00185 8.75 3.33337 8.75ZM5.83337 15.8333V14.1667H17.5V15.8333H5.83337ZM3.33337 13.75C3.66489 13.75 3.98284 13.8817 4.21726 14.1161C4.45168 14.3505 4.58337 14.6685 4.58337 15C4.58337 15.3315 4.45168 15.6495 4.21726 15.8839C3.98284 16.1183 3.66489 16.25 3.33337 16.25C3.00185 16.25 2.68391 16.1183 2.44949 15.8839C2.21507 15.6495 2.08337 15.3315 2.08337 15C2.08337 14.6685 2.21507 14.3505 2.44949 14.1161C2.68391 13.8817 3.00185 13.75 3.33337 13.75Z" fill="#44425C"/>
</svg>
